<svg width="119" height="118" viewBox="0 0 119 118" fill="none" xmlns="http://www.w3.org/2000/svg">
<path id="Combined Shape" fill-rule="evenodd" clip-rule="evenodd" d="M118.615 14.4576C118.615 22.4422 112.07 28.9151 103.996 28.9151C95.9227 28.9151 89.3779 22.4422 89.3779 14.4576C89.3779 6.47286 95.9227 0 103.996 0C112.07 0 118.615 6.47286 118.615 14.4576ZM72.9257 59.2954C72.9257 67.2801 66.3809 73.753 58.3075 73.753C50.2341 73.753 43.6893 67.2801 43.6893 59.2954C43.6893 51.3108 50.2341 44.8379 58.3075 44.8379C66.3809 44.8379 72.9257 51.3108 72.9257 59.2954ZM14.6643 66.7238C18.8113 66.7238 22.1732 63.3989 22.1732 59.2975C22.1732 55.196 18.8113 51.8711 14.6643 51.8711C10.5172 51.8711 7.1554 55.196 7.1554 59.2975C7.1554 63.3989 10.5172 66.7238 14.6643 66.7238ZM101.955 66.7238C106.102 66.7238 109.464 63.3989 109.464 59.2975C109.464 55.196 106.102 51.8711 101.955 51.8711C97.8075 51.8711 94.4456 55.196 94.4456 59.2975C94.4456 63.3989 97.8075 66.7238 101.955 66.7238ZM58.6642 110.238C62.8113 110.238 66.1731 106.913 66.1731 102.811C66.1731 98.7097 62.8113 95.3848 58.6642 95.3848C54.5172 95.3848 51.1553 98.7097 51.1553 102.811C51.1553 106.913 54.5172 110.238 58.6642 110.238ZM14.6182 117.224C22.6916 117.224 29.2364 110.751 29.2364 102.766C29.2364 94.7815 22.6916 88.3086 14.6182 88.3086C6.5448 88.3086 0 94.7815 0 102.766C0 110.751 6.5448 117.224 14.6182 117.224ZM113.727 102.811C113.727 108.854 108.773 113.753 102.663 113.753C96.5525 113.753 91.5991 108.854 91.5991 102.811C91.5991 96.768 96.5525 91.8692 102.663 91.8692C108.773 91.8692 113.727 96.768 113.727 102.811ZM58.6628 28.9151C66.7362 28.9151 73.281 22.4422 73.281 14.4576C73.281 6.47286 66.7362 0 58.6628 0C50.5894 0 44.0446 6.47286 44.0446 14.4576C44.0446 22.4422 50.5894 28.9151 58.6628 28.9151ZM25.7264 14.4615C25.7264 20.5046 20.7731 25.4034 14.6629 25.4034C8.55262 25.4034 3.59931 20.5046 3.59931 14.4615C3.59931 8.4184 8.55262 3.51953 14.6629 3.51953C20.7731 3.51953 25.7264 8.4184 25.7264 14.4615Z" fill="black"/>
</svg>
